<svg width="37" height="37" viewBox="0 0 37 37" fill="none" xmlns="http://www.w3.org/2000/svg">
<g clip-path="url(#clip0_1_708)">
<path d="M18.5 36.4075C28.1305 36.4075 35.9375 28.6004 35.9375 18.97C35.9375 9.33951 28.1305 1.53247 18.5 1.53247C8.86953 1.53247 1.0625 9.33951 1.0625 18.97C1.0625 28.6004 8.86953 36.4075 18.5 36.4075Z" fill="#F9FAFB" stroke="url(#paint0_linear_1_708)" stroke-width="1.125"/>
<mask id="mask0_1_708" style="mask-type:alpha" maskUnits="userSpaceOnUse" x="0" y="0" width="37" height="37">
<path d="M18.5 36.97C28.4411 36.97 36.5 28.9111 36.5 18.97C36.5 9.02884 28.4411 0.969971 18.5 0.969971C8.55887 0.969971 0.5 9.02884 0.5 18.97C0.5 28.9111 8.55887 36.97 18.5 36.97Z" fill="#F9FAFB"/>
</mask>
<g mask="url(#mask0_1_708)">
<path opacity="0.18" d="M46.25 -6.15503H-3.625V51.595H46.25V-6.15503Z" fill="url(#paint1_radial_1_708)"/>
</g>
<path d="M15.5337 11.0028C15.2714 10.9621 15.2604 10.9574 15.3838 10.9384C15.6204 10.902 16.179 10.9516 16.564 11.0431C17.4626 11.2568 18.2803 11.804 19.1532 12.7759L19.3851 13.034L19.7169 12.9807C21.1145 12.7561 22.5362 12.9346 23.7254 13.484C24.0525 13.6351 24.5684 13.9359 24.6328 14.0132C24.6533 14.0379 24.691 14.1965 24.7165 14.3657C24.8049 14.9512 24.7606 15.4 24.5816 15.7352C24.4842 15.9176 24.4787 15.9755 24.5441 16.1315C24.5966 16.256 24.7423 16.3483 24.8867 16.3481C25.1822 16.3478 25.5003 15.87 25.6477 15.2053L25.7061 14.9413L25.8222 15.0726C26.4583 15.7933 26.958 16.7762 27.0438 17.4758L27.0661 17.6583L26.9592 17.4925C26.7751 17.2071 26.5902 17.0128 26.3535 16.8561C25.9267 16.5738 25.4755 16.4776 24.2802 16.4146C23.2008 16.3578 22.59 16.2656 21.9842 16.068C20.9536 15.732 20.434 15.2845 19.2096 13.6783C18.6659 12.9648 18.3299 12.5701 17.9954 12.2522C17.2358 11.5298 16.4894 11.1511 15.5337 11.0028Z" fill="#FF007A"/>
<path d="M24.8763 12.5958C24.9034 12.1177 24.9682 11.8024 25.0985 11.5144C25.1501 11.4004 25.1985 11.3071 25.2059 11.3071C25.2134 11.3071 25.191 11.3913 25.1561 11.4941C25.0613 11.7736 25.0457 12.1558 25.1111 12.6006C25.1939 13.1649 25.241 13.2463 25.8375 13.8559C26.1172 14.1418 26.4426 14.5024 26.5606 14.6572L26.7751 14.9387L26.5606 14.7375C26.2983 14.4915 25.6951 14.0117 25.5618 13.9431C25.4725 13.8971 25.4591 13.8979 25.4041 13.9528C25.3533 14.0033 25.3426 14.0792 25.3355 14.4383C25.3246 14.9979 25.2483 15.3571 25.0642 15.7162C24.9647 15.9105 24.9489 15.869 25.0391 15.6498C25.1063 15.4861 25.1132 15.4141 25.1127 14.8724C25.1116 13.7839 24.9824 13.5223 24.2246 13.074C24.0326 12.9604 23.7163 12.7967 23.5217 12.71C23.327 12.6234 23.1725 12.548 23.1781 12.5423C23.1996 12.521 23.9386 12.7367 24.236 12.8511C24.6785 13.0213 24.7516 13.0433 24.8053 13.0228C24.8413 13.0091 24.8587 12.9041 24.8763 12.5958Z" fill="#FF007A"/>
<path d="M16.0433 14.4577C15.5107 13.7245 15.1813 12.6004 15.2526 11.76L15.2746 11.5L15.3959 11.5221C15.6235 11.5636 16.0161 11.7097 16.1998 11.8213C16.7042 12.1277 16.9225 12.531 17.1446 13.5666C17.2097 13.8699 17.2951 14.2131 17.3344 14.3293C17.3976 14.5164 17.6366 14.9533 17.8309 15.2371C17.9708 15.4414 17.8779 15.5383 17.5686 15.5104C17.0961 15.4677 16.4561 15.0261 16.0433 14.4577Z" fill="#FF007A"/>
<path d="M24.2303 19.9144C21.7416 18.9124 20.8651 18.0426 20.8651 16.575C20.8651 16.3591 20.8724 16.1824 20.8815 16.1824C20.8905 16.1824 20.9869 16.2536 21.0955 16.3408C21.6001 16.7456 22.1653 16.9184 23.7298 17.1467C24.6504 17.2809 25.1684 17.3894 25.6465 17.548C27.1655 18.0517 28.1053 19.0741 28.3294 20.4666C28.3945 20.8713 28.3564 21.63 28.2508 22.0299C28.1674 22.3457 27.913 22.9151 27.8456 22.9369C27.8269 22.9431 27.8085 22.8713 27.8037 22.7737C27.7781 22.2509 27.5138 21.7417 27.0702 21.3604C26.5655 20.9269 25.8877 20.5817 24.2303 19.9144Z" fill="#FF007A"/>
<path d="M22.4831 20.3307C22.4519 20.1452 22.3978 19.9082 22.3629 19.8042L22.2993 19.6149L22.4174 19.7474C22.5806 19.9305 22.7095 20.1649 22.8189 20.4773C22.9023 20.7156 22.9117 20.7864 22.9111 21.1737C22.9105 21.5538 22.9 21.6336 22.8229 21.8481C22.7015 22.1864 22.5507 22.4262 22.2977 22.6836C21.8431 23.1464 21.2586 23.4025 20.4152 23.5088C20.2686 23.5272 19.8412 23.5583 19.4655 23.5779C18.5187 23.6271 17.8956 23.7289 17.3358 23.9255C17.2552 23.9537 17.1834 23.9708 17.1761 23.9636C17.1534 23.9411 17.5346 23.7138 17.8495 23.5622C18.2935 23.3483 18.7355 23.2315 19.7257 23.0667C20.2149 22.9852 20.72 22.8863 20.8483 22.847C22.0596 22.4756 22.6824 21.5171 22.4831 20.3307Z" fill="#FF007A"/>
<path d="M23.6239 22.3569C23.2933 21.6461 23.2174 20.9598 23.3985 20.3197C23.4178 20.2514 23.4491 20.1953 23.4677 20.1953C23.4866 20.1953 23.5646 20.2376 23.6412 20.2891C23.7935 20.3916 24.0992 20.5645 24.9134 21.0084C25.9293 21.5623 26.5085 21.9911 26.9025 22.4812C27.2475 22.9105 27.461 23.3992 27.5637 23.9952C27.6219 24.3329 27.5878 25.1452 27.5012 25.4852C27.228 26.5572 26.5932 27.3991 25.6877 27.8906C25.555 27.9625 25.4358 28.0215 25.423 28.0219C25.4101 28.0222 25.4584 27.8992 25.5304 27.7487C25.8351 27.1119 25.8697 26.4925 25.6394 25.8031C25.4984 25.381 25.2109 24.8659 24.6304 23.9953C23.9554 22.9832 23.79 22.7139 23.6239 22.3569Z" fill="#FF007A"/>
<path d="M14.2759 26.1922C15.1995 25.4124 16.3486 24.8584 17.3954 24.6883C17.8464 24.6151 18.598 24.6442 19.0157 24.7511C19.6853 24.9224 20.2843 25.3062 20.5958 25.7636C20.9002 26.2105 21.0309 26.6 21.1668 27.4665C21.2205 27.8083 21.2788 28.1516 21.2965 28.2292C21.3986 28.6784 21.5973 29.0374 21.8437 29.2177C22.2348 29.5039 22.9083 29.5217 23.5709 29.2633C23.6833 29.2194 23.781 29.1891 23.7878 29.196C23.8119 29.2198 23.4782 29.4431 23.2429 29.5608C22.9261 29.7189 22.6743 29.7801 22.3396 29.7801C21.7328 29.7801 21.229 29.4714 20.8086 28.8419C20.7259 28.7181 20.54 28.347 20.3954 28.0174C19.9516 27.005 19.7323 26.6967 19.2171 26.3592C18.7685 26.0655 18.1901 26.0128 17.755 26.2262C17.1834 26.5064 17.0239 27.2368 17.4334 27.6998C17.5961 27.8837 17.8995 28.0423 18.1476 28.0732C18.6117 28.131 19.0106 27.7779 19.0106 27.3093C19.0106 27.005 18.8937 26.8314 18.5992 26.6985C18.1971 26.5171 17.7649 26.7292 17.7669 27.1069C17.7678 27.2679 17.838 27.3691 17.9995 27.4422C18.1031 27.4891 18.1054 27.4928 18.0209 27.4753C17.652 27.3987 17.5656 26.9539 17.8622 26.6587C18.2184 26.3042 18.9549 26.4606 19.2078 26.9444C19.314 27.1476 19.3263 27.5524 19.2337 27.7969C19.0264 28.3439 18.4219 28.6317 17.8087 28.4751C17.3912 28.3685 17.2212 28.2531 16.7178 27.7345C15.8431 26.8335 15.5036 26.6589 14.2426 26.4621L14.0009 26.4244L14.2759 26.1922Z" fill="#FF007A"/>
<path fill-rule="evenodd" clip-rule="evenodd" d="M9.1802 8.63388C12.1012 12.1792 15.1046 15.074 15.3282 15.383C15.5128 15.6382 15.4433 15.8676 15.1271 16.0474C14.9512 16.1473 14.5896 16.2487 14.4086 16.2487C14.2039 16.2487 13.9732 16.1501 13.8053 15.9907C13.6865 15.8782 13.2074 15.1626 12.1011 13.4462C11.2548 12.1329 10.5464 11.0434 10.5271 11.0251C10.4824 10.983 10.4832 10.9843 12.0149 13.7249C12.9766 15.4458 13.3013 16.0542 13.3013 16.1355C13.3013 16.301 13.2561 16.3881 13.052 16.6157C12.7116 16.9954 12.5595 17.422 12.4497 18.3049C12.3266 19.2946 11.9804 19.9936 11.021 21.1902C10.4593 21.8906 10.3674 22.0191 10.2257 22.3013C10.0472 22.6569 9.99819 22.8559 9.97827 23.3049C9.95724 23.7795 9.99819 24.0861 10.1432 24.5399C10.2702 24.9372 10.4027 25.1996 10.7414 25.7243C11.0338 26.1771 11.2021 26.5135 11.2021 26.6452C11.2021 26.7499 11.2221 26.7501 11.6751 26.6477C12.7593 26.403 13.6396 25.9724 14.1347 25.4447C14.4411 25.1181 14.513 24.9378 14.5154 24.4901C14.5169 24.1975 14.5066 24.1361 14.4275 23.9677C14.2986 23.6936 14.0641 23.4657 13.5473 23.1123C12.87 22.6494 12.5808 22.2767 12.5009 21.7642C12.4353 21.3436 12.5114 21.0468 12.8861 20.2616C13.2738 19.4489 13.3699 19.1025 13.4349 18.2832C13.4769 17.754 13.5351 17.5452 13.6871 17.3777C13.8457 17.203 13.9885 17.1438 14.381 17.0902C15.0209 17.0028 15.4284 16.8372 15.7633 16.5285C16.0539 16.2609 16.1755 16.0028 16.1942 15.6145L16.2083 15.3201L16.0459 15.1308C15.4579 14.4452 8.78641 8.09497 8.75022 8.09497C8.7425 8.09497 8.936 8.33748 9.1802 8.63388ZM11.5322 23.8419C11.6651 23.6064 11.5945 23.3038 11.3721 23.156C11.162 23.0163 10.8356 23.082 10.8356 23.2641C10.8356 23.3197 10.8663 23.3601 10.9355 23.3957C11.0522 23.4556 11.0606 23.5231 10.9689 23.661C10.876 23.8007 10.8835 23.9234 10.99 24.0068C11.1618 24.1413 11.4048 24.0674 11.5322 23.8419Z" fill="#FF007A"/>
<path fill-rule="evenodd" clip-rule="evenodd" d="M16.6122 17.2447C16.3118 17.3368 16.0197 17.6552 15.9293 17.9891C15.8742 18.1928 15.9055 18.55 15.9881 18.6603C16.1216 18.8386 16.2505 18.8855 16.6 18.8831C17.2841 18.8783 17.8789 18.5849 17.948 18.218C18.0047 17.9173 17.7434 17.5007 17.3837 17.3178C17.1981 17.2234 16.8032 17.1859 16.6122 17.2447ZM17.4119 17.8699C17.5174 17.7201 17.4713 17.558 17.2919 17.4485C16.9501 17.2398 16.4334 17.4125 16.4334 17.7352C16.4334 17.8959 16.7028 18.0713 16.9498 18.0713C17.1143 18.0713 17.3393 17.9732 17.4119 17.8699Z" fill="#FF007A"/>
</g>
<defs>
<linearGradient id="paint0_linear_1_708" x1="30.875" y1="30.4075" x2="8.5625" y2="5.46997" gradientUnits="userSpaceOnUse">
<stop stop-color="#FCC0DB"/>
<stop offset="1" stop-color="#FAF0F5"/>
</linearGradient>
<radialGradient id="paint1_radial_1_708" cx="0" cy="0" r="1" gradientUnits="userSpaceOnUse" gradientTransform="translate(21.3124 22.72) rotate(90) scale(28.8751 24.9374)">
<stop stop-color="#FF64A5"/>
<stop offset="1" stop-color="#F7F8FA"/>
</radialGradient>
<clipPath id="clip0_1_708">
<rect width="36" height="36" fill="white" transform="translate(0.5 0.969971)"/>
</clipPath>
</defs>
</svg>
