<svg width="510" height="28" viewBox="0 0 510 28" fill="none" xmlns="http://www.w3.org/2000/svg">
<path d="M0.516479 25.0844C0.516479 25.0844 11.0409 25.1737 18.0571 25.1737C25.0734 25.1737 28.5815 24.8487 35.5978 24.8487C42.6141 24.8487 46.1222 25.0077 53.1385 25.0077C60.1547 25.0077 63.6629 25.835 70.6791 25.835C77.6954 25.835 81.2035 26.2357 88.2198 26.2357C95.2361 26.2357 98.7442 25.7351 105.76 25.7351C112.777 25.7351 116.285 25.2584 123.301 25.2584C130.317 25.2584 133.826 25.2487 140.842 25.2487C147.858 25.2487 151.366 25.3382 158.382 25.3382C165.399 25.3382 168.907 25.5791 175.923 25.5791C182.939 25.5791 186.448 13.1365 193.464 13.1365C200.48 13.1365 203.988 10.9324 211.004 10.9324C218.021 10.9324 221.529 20.5436 228.545 20.5436C235.561 20.5436 239.07 20.6255 246.086 20.6255C253.102 20.6255 256.61 24.5937 263.626 24.5937C270.643 24.5937 274.151 24.5137 281.167 24.5137C288.183 24.5137 291.692 22.2511 298.708 22.2511C305.724 22.2511 309.232 18.5964 316.248 18.5964C323.265 18.5964 326.773 25.5202 333.789 25.5202C340.805 25.5202 344.314 25.3185 351.33 25.3185C358.346 25.3185 361.854 25.4712 368.87 25.4712C375.887 25.4712 379.395 25.0181 386.411 25.0181C393.427 25.0181 396.936 24.9309 403.952 24.9309C410.968 24.9309 414.476 24.6038 421.492 24.6038C428.509 24.6038 432.017 24.2538 439.033 24.2538C446.049 24.2538 449.557 3.44993 456.574 3.44993C463.59 3.44993 467.098 1.99426 474.114 1.99426C481.131 1.99426 484.639 8.53483 491.655 8.53483C498.671 8.53483 502.179 5.4954 509.196 5.4954" stroke="#00D395" stroke-width="3.50823"/>
</svg>
