<svg width="509" height="12" viewBox="0 0 509 12" fill="none" xmlns="http://www.w3.org/2000/svg">
<path d="M0.286476 1.99426C0.286476 1.99426 10.8109 2.05767 17.8271 2.05767C24.8434 2.05767 28.3515 1.99426 35.3678 1.99426C42.3841 1.99426 45.8922 1.99426 52.9085 1.99426C59.9247 1.99426 63.4329 6.55495 70.4491 6.55495C77.4654 6.55495 80.9735 9.28044 87.9898 9.28044C95.0061 9.28044 98.5142 5.87582 105.53 5.87582C112.547 5.87582 116.055 2.63317 123.071 2.63317C130.087 2.63317 133.596 2.56715 140.612 2.56715C147.628 2.56715 151.136 3.17586 158.152 3.17586C165.169 3.17586 168.677 4.8144 175.693 4.8144C182.709 4.8144 186.218 1.99426 193.234 1.99426C200.25 1.99426 203.758 1.99426 210.774 1.99426C217.791 1.99426 221.299 1.99426 228.315 1.99426C235.331 1.99426 238.84 1.99426 245.856 1.99426C252.872 1.99426 256.38 1.99426 263.396 1.99426C270.413 1.99426 273.921 1.99426 280.937 1.99426C287.953 1.99426 291.462 1.99426 298.478 1.99426C305.494 1.99426 309.002 1.99426 316.018 1.99426C323.035 1.99426 326.543 4.41426 333.559 4.41426C340.575 4.41426 344.084 3.04193 351.1 3.04193C358.116 3.04193 361.624 4.08045 368.64 4.08045C375.657 4.08045 379.165 1.99426 386.181 1.99426C393.197 1.99426 396.705 1.99426 403.722 1.99426C410.738 1.99426 414.246 1.99426 421.262 1.99426C428.279 1.99426 431.787 1.99426 438.803 1.99426C445.819 1.99426 449.327 1.99426 456.344 1.99426C463.36 1.99426 466.868 1.99426 473.884 1.99426C480.901 1.99426 484.409 1.99426 491.425 1.99426C498.441 1.99426 501.949 1.99426 508.966 1.99426" stroke="#9669ED" stroke-width="3.50823"/>
</svg>
