<svg width="15" height="15" viewBox="0 0 15 15" fill="none" xmlns="http://www.w3.org/2000/svg">
<g clip-path="url(#clip0_1_93)">
<path fill-rule="evenodd" clip-rule="evenodd" d="M9.51109 1.13635C9.03583 1.13635 8.65055 1.52163 8.65055 1.99689C8.65055 2.47214 9.03583 2.85742 9.51109 2.85742H10.8741L9.84001 3.58938L5.47633 7.95615C5.14011 8.29261 5.1402 8.83788 5.47654 9.17421C5.81304 9.51072 6.35865 9.51062 6.69504 9.17399L11.0508 4.81513L11.789 3.78343V5.1353C11.789 5.61056 12.1742 5.99583 12.6495 5.99583C13.1248 5.99583 13.51 5.61056 13.51 5.1353V1.99689C13.51 1.5199 13.1265 1.13635 12.6495 1.13635H9.51109ZM10.3876 13.4394C11.3249 13.4394 12.0846 12.6796 12.0846 11.7424V8.48989C12.0846 8.02129 11.7047 7.6414 11.2361 7.6414C10.7675 7.6414 10.3876 8.02129 10.3876 8.48989V11.106C10.3876 11.4575 10.1027 11.7424 9.75128 11.7424H3.38764C3.03618 11.7424 2.75128 11.4575 2.75128 11.106V4.74241C2.75128 4.39096 3.03619 4.10605 3.38764 4.10605H6.0038C6.4724 4.10605 6.85229 3.72617 6.85229 3.25757C6.85229 2.78896 6.4724 2.40908 6.0038 2.40908H2.75128C1.81407 2.40908 1.05431 3.16883 1.05431 4.10605V11.7424C1.05431 12.6796 1.81406 13.4394 2.75128 13.4394H10.3876Z" fill="#7A8A99"/>
</g>
<defs>
<clipPath id="clip0_1_93">
<rect width="14" height="14" fill="white" transform="translate(0.630005 0.5)"/>
</clipPath>
</defs>
</svg>
