<svg width="37" height="36" viewBox="0 0 37 36" fill="none" xmlns="http://www.w3.org/2000/svg">
<g clip-path="url(#clip0_1_70)">
<path d="M18.5 35.625C21.9859 35.625 25.3935 34.5913 28.2919 32.6547C31.1903 30.718 33.4494 27.9654 34.7834 24.7448C36.1174 21.5242 36.4664 17.9805 35.7863 14.5615C35.1063 11.1426 33.4277 8.00216 30.9628 5.53725C28.4978 3.07235 25.3574 1.39373 21.9385 0.713667C18.5195 0.0336036 14.9758 0.382636 11.7552 1.71663C8.53464 3.05063 5.78203 5.30966 3.84535 8.20808C1.90869 11.1065 0.875 14.5141 0.875 18C0.875 22.6745 2.73191 27.1574 6.03725 30.4628C9.34258 33.7681 13.8255 35.625 18.5 35.625Z" fill="#2775C9"/>
<path d="M23.3537 20.8009C23.3537 18.2306 21.7895 17.364 18.7639 16.9491C16.5277 16.626 16.0981 16.1009 16.0981 15.0581C16.0981 14.0153 16.8545 13.3654 18.3012 13.3654C19.6194 13.3654 20.3795 13.8244 20.6916 14.8856C20.7248 15.0017 20.7945 15.1041 20.8904 15.1775C20.9863 15.2509 21.1033 15.2915 21.2241 15.2931H22.3807C22.4562 15.2947 22.5312 15.2796 22.6002 15.2489C22.6693 15.2182 22.7307 15.1726 22.7802 15.1155C22.8296 15.0583 22.8658 14.991 22.8863 14.9183C22.9067 14.8455 22.9109 14.7691 22.8984 14.6946C22.5312 13.0166 21.4003 12.0068 19.6268 11.691V9.92115C19.6268 9.77509 19.5687 9.63499 19.4655 9.53172C19.3622 9.4284 19.2221 9.37039 19.076 9.37039H17.9744C17.8284 9.37039 17.6883 9.4284 17.585 9.53172C17.4817 9.63499 17.4237 9.77509 17.4237 9.92115V11.6286C15.2205 11.937 13.8289 13.3911 13.8289 15.2564C13.8289 17.6688 15.2976 18.6051 18.3673 19.0201C20.4566 19.3616 21.0515 19.8132 21.0515 20.9992C21.0515 22.1852 20.0417 22.982 18.617 22.982C16.6966 22.982 16.0467 22.1412 15.8301 21.0506C15.8049 20.9255 15.7376 20.8128 15.6393 20.7312C15.5411 20.6497 15.4179 20.6043 15.2903 20.6027H14.0345C13.9596 20.6022 13.8855 20.6181 13.8173 20.6493C13.7492 20.6804 13.6887 20.7261 13.6401 20.7831C13.5914 20.8402 13.5559 20.9071 13.5359 20.9793C13.5158 21.0515 13.5118 21.1272 13.5241 21.2012C13.8436 23.0371 15.0222 24.381 17.4237 24.7041V26.4446C17.4237 26.5907 17.4817 26.7308 17.585 26.8341C17.6883 26.9373 17.8284 26.9954 17.9744 26.9954H19.076C19.2221 26.9954 19.3622 26.9373 19.4655 26.8341C19.5687 26.7308 19.6268 26.5907 19.6268 26.4446V24.7041C21.9033 24.3443 23.3537 22.7727 23.3537 20.8009Z" fill="white"/>
<path d="M14.7466 28.5302C12.6249 27.7555 10.7928 26.3473 9.49824 24.4965C8.2037 22.6456 7.50939 20.4415 7.50939 18.1829C7.50939 15.9243 8.2037 13.7202 9.49824 11.8693C10.7928 10.0185 12.6249 8.6103 14.7466 7.83555C14.8826 7.77585 14.9991 7.67914 15.0829 7.55644C15.1666 7.43374 15.2142 7.29 15.2203 7.14157V6.11344C15.2291 6.02239 15.2138 5.93062 15.1759 5.84737C15.138 5.76412 15.0789 5.69227 15.0045 5.63906C14.9301 5.58585 14.843 5.55319 14.752 5.54426C14.661 5.53537 14.5692 5.5506 14.4859 5.58836C11.8141 6.43991 9.48234 8.11909 7.82769 10.3831C6.17304 12.6471 5.28125 15.3787 5.28125 18.1829C5.28125 20.9871 6.17304 23.7187 7.82769 25.9827C9.48234 28.2467 11.8141 29.9259 14.4859 30.7774C14.5692 30.8152 14.661 30.8304 14.752 30.8215C14.843 30.8126 14.9301 30.7799 15.0045 30.7267C15.0789 30.6735 15.138 30.6017 15.1759 30.5184C15.2138 30.4351 15.2291 30.3434 15.2203 30.2523V29.2242C15.2142 29.0758 15.1666 28.932 15.0829 28.8093C14.9991 28.6867 14.8826 28.59 14.7466 28.5302Z" fill="white"/>
<path d="M22.5638 5.58836C22.4805 5.5506 22.3887 5.53537 22.2977 5.54426C22.2067 5.55319 22.1196 5.58585 22.0452 5.63906C21.9708 5.69227 21.9117 5.76412 21.8738 5.84737C21.8359 5.93062 21.8206 6.02239 21.8295 6.11344V7.14157C21.8355 7.29 21.8831 7.43374 21.9668 7.55644C22.0506 7.67914 22.1671 7.77585 22.3031 7.83555C24.4248 8.6103 26.257 10.0185 27.5515 11.8693C28.846 13.7202 29.5403 15.9243 29.5403 18.1829C29.5403 20.4415 28.846 22.6456 27.5515 24.4965C26.257 26.3473 24.4248 27.7555 22.3031 28.5302C22.1626 28.5836 22.0419 28.6787 21.9572 28.8028C21.8725 28.9269 21.8279 29.074 21.8295 29.2242V30.2523C21.8206 30.3434 21.8359 30.4351 21.8738 30.5184C21.9117 30.6017 21.9708 30.6735 22.0452 30.7267C22.1196 30.7799 22.2067 30.8126 22.2977 30.8215C22.3887 30.8304 22.4805 30.8152 22.5638 30.7774C25.2356 29.9259 27.5674 28.2467 29.2221 25.9827C30.8767 23.7187 31.7685 20.9871 31.7685 18.1829C31.7685 15.3787 30.8767 12.6471 29.2221 10.3831C27.5674 8.11909 25.2356 6.43991 22.5638 5.58836Z" fill="white"/>
</g>
<defs>
<clipPath id="clip0_1_70">
<rect width="36" height="36" fill="white" transform="translate(0.5)"/>
</clipPath>
</defs>
</svg>
