<svg width="13" height="13" viewBox="0 0 13 13" fill="none" xmlns="http://www.w3.org/2000/svg">
<g clip-path="url(#clip0_1_27)">
<path d="M6.36481 3.58894C6.18457 3.76918 6.18457 4.06141 6.36481 4.24165L8.7581 6.63493C8.93834 6.81517 9.23057 6.81517 9.41081 6.63493L11.8041 4.24165C11.9844 4.06141 11.9844 3.76918 11.8041 3.58894L9.41081 1.19565C9.23057 1.01541 8.93834 1.01541 8.7581 1.19565L6.36481 3.58894Z" fill="#7A8A99"/>
<path d="M0.961538 1.4227C0.706638 1.4227 0.5 1.62934 0.5 1.88424V5.88423C0.5 6.13914 0.706638 6.34577 0.961538 6.34577H4.96154C5.21644 6.34577 5.42307 6.13914 5.42307 5.88423V1.88424C5.42307 1.62934 5.21644 1.4227 4.96154 1.4227H0.961538Z" fill="#7A8A99"/>
<path d="M0.961538 7.57671C0.706638 7.57671 0.5 7.78335 0.5 8.03824V12.0383C0.5 12.2931 0.706638 12.4998 0.961538 12.4998H4.96154C5.21644 12.4998 5.42307 12.2931 5.42307 12.0383V8.03824C5.42307 7.78335 5.21644 7.57671 4.96154 7.57671H0.961538Z" fill="#7A8A99"/>
<path d="M6.65385 8.03818C6.65385 7.78328 6.86049 7.57664 7.11539 7.57664H11.1154C11.3703 7.57664 11.5769 7.78328 11.5769 8.03818V12.0382C11.5769 12.2931 11.3703 12.4997 11.1154 12.4997H7.11539C6.86049 12.4997 6.65385 12.2931 6.65385 12.0382V8.03818Z" fill="#7A8A99"/>
</g>
<defs>
<clipPath id="clip0_1_27">
<rect width="12" height="13" fill="white" transform="translate(0.5)"/>
</clipPath>
</defs>
</svg>
