<svg width="13" height="12" viewBox="0 0 13 12" fill="none" xmlns="http://www.w3.org/2000/svg">
<g clip-path="url(#clip0_1_35)">
<path fill-rule="evenodd" clip-rule="evenodd" d="M6.5 11.5385C9.55881 11.5385 12.0385 9.0588 12.0385 5.99999C12.0385 2.94118 9.55881 0.461533 6.5 0.461533C3.44119 0.461533 0.96154 2.94118 0.96154 5.99999C0.96154 9.0588 3.44119 11.5385 6.5 11.5385ZM4.46587 5.45606L5.88009 6.87028L8.59973 4.15064C8.77997 3.9704 9.0722 3.9704 9.25244 4.15064L9.47001 4.36821C9.65026 4.54846 9.65026 4.84068 9.47001 5.02092L6.20644 8.28449C6.0262 8.46474 5.73398 8.46474 5.55373 8.28449L3.59559 6.32635C3.41535 6.14611 3.41535 5.85388 3.59559 5.67364L3.81316 5.45606C3.9934 5.27582 4.28563 5.27582 4.46587 5.45606Z" fill="#6D7E8F"/>
</g>
<defs>
<clipPath id="clip0_1_35">
<rect width="12" height="12" fill="white" transform="translate(0.5)"/>
</clipPath>
</defs>
</svg>
