<svg width="37" height="37" viewBox="0 0 37 37" fill="none" xmlns="http://www.w3.org/2000/svg">
<g clip-path="url(#clip0_1_667)">
<path d="M18.5 36.595C21.9859 36.595 25.3935 35.5613 28.2919 33.6246C31.1903 31.6879 33.4494 28.9353 34.7834 25.7148C36.1174 22.4942 36.4664 18.9504 35.7863 15.5315C35.1063 12.1126 33.4277 8.97213 30.9628 6.50722C28.4978 4.04232 25.3574 2.3637 21.9385 1.68364C18.5195 1.00357 14.9758 1.35261 11.7552 2.6866C8.53464 4.0206 5.78203 6.27963 3.84535 9.17805C1.90869 12.0765 0.875 15.4841 0.875 18.97C0.875 23.6444 2.73191 28.1274 6.03725 31.4327C9.34258 34.738 13.8255 36.595 18.5 36.595Z" fill="white"/>
<path d="M22.516 18.2736C23.4595 17.7629 24.0499 16.8635 23.912 15.3651C23.7263 13.3174 22.0621 12.6308 19.9614 12.4353L19.961 9.59497H18.3333L18.3329 12.3606C17.9046 12.3606 17.468 12.3695 17.0334 12.3788L17.0331 9.59535L15.4069 9.5952L15.4066 12.4348C15.0542 12.4424 14.708 12.4497 14.3701 12.4497V12.4413L12.125 12.4403L12.1253 14.2866C12.1253 14.2866 13.3273 14.2625 13.3075 14.2858C13.9666 14.2863 14.1817 14.6929 14.2436 15.0439L14.2441 18.2796V22.8247C14.2151 23.0449 14.093 23.3969 13.6322 23.3975C13.6532 23.4171 12.4482 23.3973 12.4482 23.3973L12.1253 25.4618H14.2431C14.6378 25.4623 15.0255 25.4688 15.4059 25.472L15.4073 28.3445L17.0331 28.345L17.0327 25.5026C17.4799 25.5123 17.9117 25.5165 18.3334 25.5159L18.3329 28.345H19.9606L19.9615 25.4773C22.6975 25.3104 24.6128 24.5781 24.851 21.8484C25.0429 19.6507 24.0693 18.6697 22.516 18.2736ZM17.0723 14.4112C17.9903 14.4112 20.8774 14.1006 20.8778 16.1379C20.8774 18.0912 17.9912 17.863 17.0723 17.863V14.4112ZM17.0716 23.4115L17.0723 19.6056C18.1753 19.6053 21.6347 19.2684 21.6352 21.5077C21.6356 23.6552 18.1753 23.4107 17.0716 23.4115Z" fill="#F6941A"/>
<path d="M18.5 32.845C26.163 32.845 32.375 26.6329 32.375 18.97C32.375 11.307 26.163 5.09497 18.5 5.09497C10.837 5.09497 4.625 11.307 4.625 18.97C4.625 26.6329 10.837 32.845 18.5 32.845Z" stroke="#657786" stroke-width="1.5"/>
<path d="M18.5 35.845C27.8198 35.845 35.375 28.2898 35.375 18.97C35.375 9.65017 27.8198 2.09497 18.5 2.09497C9.18019 2.09497 1.625 9.65017 1.625 18.97C1.625 28.2898 9.18019 35.845 18.5 35.845Z" stroke="#283947" stroke-width="1.5"/>
<path d="M29.3993 30.595L24.3787 25.7381M10.8044 12.6065L6.5 8.46997M7.64322 30.595L12.6638 25.7381M26.2382 12.6065L30.5 8.46997" stroke="white" stroke-width="1.5"/>
</g>
<defs>
<clipPath id="clip0_1_667">
<rect width="36" height="36" fill="white" transform="translate(0.5 0.969971)"/>
</clipPath>
</defs>
</svg>
