<svg width="37" height="37" viewBox="0 0 37 37" fill="none" xmlns="http://www.w3.org/2000/svg">
<g clip-path="url(#clip0_1_687)">
<mask id="mask0_1_687" style="mask-type:luminance" maskUnits="userSpaceOnUse" x="0" y="0" width="37" height="37">
<path d="M36.5 0.969971H0.5V36.97H36.5V0.969971Z" fill="white"/>
</mask>
<g mask="url(#mask0_1_687)">
<path d="M18.5 36.97C28.4411 36.97 36.5 28.911 36.5 18.97C36.5 9.02884 28.4411 0.969971 18.5 0.969971C8.55887 0.969971 0.5 9.02884 0.5 18.97C0.5 28.911 8.55887 36.97 18.5 36.97Z" fill="#070A0E"/>
<path fill-rule="evenodd" clip-rule="evenodd" d="M11.2062 24.7958C10.6881 24.4789 10.3713 23.9145 10.3713 23.3086V19.925C10.3713 19.7955 10.406 19.6706 10.4707 19.5595C10.6719 19.2126 11.1183 19.0946 11.4653 19.2982L19.1024 23.7504C19.5488 24.0117 19.824 24.4881 19.824 25.0062V28.5125C19.824 28.6722 19.7801 28.8316 19.6967 28.9682C19.4447 29.3798 18.9081 29.5093 18.4963 29.2573L11.2062 24.7958ZM22.5902 18.3707C23.0366 18.6321 23.3118 19.1085 23.3118 19.6266V26.7408C23.3118 26.9513 23.1984 27.1457 23.0157 27.2473L21.3436 28.1887C21.3228 28.2002 21.2996 28.2095 21.2765 28.2165V24.2661C21.2765 23.7551 21.0082 23.2809 20.5687 23.0172L13.8614 19.0045V14.5453C13.8614 14.4158 13.8961 14.2909 13.9609 14.1799C14.1621 13.833 14.6085 13.715 14.9554 13.9185L22.5902 18.3707ZM25.9323 13.116C26.381 13.375 26.6562 13.8561 26.6562 14.3742V24.7657C26.6562 24.9785 26.5383 25.1751 26.3509 25.2769L24.7667 26.1326V18.898C24.7667 18.387 24.4984 17.915 24.0611 17.6514L17.2058 13.5392V9.30905C17.2058 9.17953 17.2406 9.05464 17.303 8.94362C17.5042 8.5967 17.9506 8.47874 18.2975 8.67996L25.9323 13.116Z" fill="#00D395"/>
</g>
</g>
<defs>
<clipPath id="clip0_1_687">
<rect width="36" height="36" fill="white" transform="translate(0.5 0.969971)"/>
</clipPath>
</defs>
</svg>
