<svg width="37" height="37" viewBox="0 0 37 37" fill="none" xmlns="http://www.w3.org/2000/svg">
<g clip-path="url(#clip0_1_738)">
<path d="M18.5 36.97C28.4411 36.97 36.5 28.9111 36.5 18.97C36.5 9.02884 28.4411 0.969971 18.5 0.969971C8.55887 0.969971 0.5 9.02884 0.5 18.97C0.5 28.9111 8.55887 36.97 18.5 36.97Z" fill="#F9FAFB"/>
<path d="M18.5 6.96997L16.2778 8.25581L10.2222 11.7779L8 13.0637V25.2512L10.2222 26.5371L16.3333 30.0591L18.5555 31.345L20.7778 30.0591L26.7778 26.5371L29 25.2512V13.0637L26.7778 11.7779L20.7222 8.25581L18.5 6.96997ZM12.4445 22.6795V15.6354L18.5 12.1133L24.5555 15.6354V22.6795L18.5 26.2016L12.4445 22.6795Z" fill="#2A5ADA"/>
</g>
<defs>
<clipPath id="clip0_1_738">
<rect width="36" height="36" fill="white" transform="translate(0.5 0.969971)"/>
</clipPath>
</defs>
</svg>
