<svg width="20" height="20" viewBox="0 0 20 20" fill="none" xmlns="http://www.w3.org/2000/svg">
<g clip-path="url(#clip0_1_557)">
<mask id="mask0_1_557" style="mask-type:luminance" maskUnits="userSpaceOnUse" x="0" y="0" width="20" height="20">
<path d="M19.88 0.649963H0.690002V19.84H19.88V0.649963Z" fill="white"/>
</mask>
<g mask="url(#mask0_1_557)">
<path d="M10.285 19.84C15.5841 19.84 19.88 15.5441 19.88 10.245C19.88 4.94579 15.5841 0.649963 10.285 0.649963C4.98583 0.649963 0.690002 4.94579 0.690002 10.245C0.690002 15.5441 4.98583 19.84 10.285 19.84Z" fill="#070A0E"/>
<path fill-rule="evenodd" clip-rule="evenodd" d="M6.39702 13.3504C6.12086 13.1815 5.95195 12.8807 5.95195 12.5577V10.754C5.95195 10.685 5.97044 10.6184 6.00496 10.5592C6.11222 10.3743 6.35017 10.3114 6.53511 10.4199L10.6061 12.7932C10.8441 12.9325 10.9908 13.1864 10.9908 13.4626V15.3317C10.9908 15.4167 10.9674 15.5017 10.9229 15.5745C10.7886 15.7939 10.5025 15.863 10.2831 15.7287L6.39702 13.3504ZM12.4653 9.92548C12.7032 10.0648 12.8499 10.3188 12.8499 10.595V14.3872C12.8499 14.4994 12.7895 14.603 12.6922 14.6572L11.8008 15.159C11.7897 15.1652 11.7773 15.1701 11.765 15.1739V13.0681C11.765 12.7957 11.622 12.5429 11.3878 12.4023L7.81238 10.2633V7.88634C7.81238 7.81731 7.83088 7.75073 7.8654 7.69155C7.97266 7.50662 8.21061 7.44375 8.39554 7.55224L12.4653 9.92548ZM14.2468 7.12443C14.486 7.26251 14.6327 7.51895 14.6327 7.79512V13.3344C14.6327 13.4478 14.5698 13.5526 14.47 13.6069L13.6255 14.063V10.2066C13.6255 9.93417 13.4825 9.6826 13.2494 9.54205L9.59514 7.35005V5.09513C9.59514 5.02609 9.61366 4.95952 9.64694 4.90034C9.75421 4.71541 9.99213 4.65253 10.1771 4.75979L14.2468 7.12443Z" fill="#00D395"/>
</g>
</g>
<defs>
<clipPath id="clip0_1_557">
<rect width="19.19" height="19.19" fill="white" transform="translate(0.690002 0.649963)"/>
</clipPath>
</defs>
</svg>
