<svg width="20" height="20" viewBox="0 0 20 20" fill="none" xmlns="http://www.w3.org/2000/svg">
<g clip-path="url(#clip0_1_547)">
<path d="M9.68499 19.6401C11.5432 19.6401 13.3596 19.0891 14.9046 18.0567C16.4496 17.0244 17.6538 15.5571 18.3649 13.8403C19.076 12.1236 19.2621 10.2345 18.8996 8.41207C18.5371 6.5896 17.6423 4.91556 16.3283 3.60162C15.0144 2.28769 13.3403 1.39289 11.5179 1.03038C9.69541 0.66787 7.80637 0.853924 6.08964 1.56502C4.3729 2.27611 2.9056 3.4803 1.87325 5.02532C0.840899 6.57033 0.289886 8.38679 0.289886 10.245C0.289886 12.7367 1.27972 15.1264 3.04165 16.8883C4.80357 18.6502 7.19325 19.6401 9.68499 19.6401Z" fill="#2775C9"/>
<path d="M12.2723 11.738C12.2723 10.3679 11.4385 9.90596 9.82567 9.68479C8.63367 9.51254 8.40467 9.23265 8.40467 8.67678C8.40467 8.12089 8.80788 7.77445 9.57906 7.77445C10.2817 7.77445 10.6869 8.01912 10.8533 8.58479C10.8709 8.64669 10.9081 8.70127 10.9592 8.74038C11.0103 8.77952 11.0727 8.80115 11.1371 8.80203H11.7536C11.7939 8.80287 11.8339 8.79482 11.8707 8.77846C11.9075 8.76209 11.9402 8.73781 11.9666 8.70734C11.9929 8.67688 12.0122 8.64098 12.0231 8.60222C12.034 8.56344 12.0362 8.52272 12.0296 8.483C11.8339 7.5885 11.231 7.05025 10.2857 6.88191V5.93848C10.2857 5.86063 10.2547 5.78594 10.1997 5.73089C10.1446 5.67582 10.0699 5.6449 9.99204 5.6449H9.40485C9.32699 5.6449 9.25231 5.67582 9.19726 5.73089C9.14219 5.78594 9.11126 5.86063 9.11126 5.93848V6.84863C7.93687 7.01304 7.19504 7.78814 7.19504 8.78246C7.19504 10.0684 7.97797 10.5675 9.61428 10.7887C10.728 10.9707 11.0451 11.2115 11.0451 11.8437C11.0451 12.4759 10.5068 12.9007 9.74739 12.9007C8.7237 12.9007 8.37727 12.4524 8.26179 11.8711C8.24835 11.8044 8.21247 11.7443 8.16012 11.7009C8.10777 11.6574 8.0421 11.6332 7.97406 11.6323H7.30466C7.26473 11.6321 7.22521 11.6405 7.18889 11.6572C7.15256 11.6738 7.1203 11.6981 7.09439 11.7285C7.06847 11.7589 7.04952 11.7946 7.03884 11.8331C7.02817 11.8716 7.02603 11.912 7.03259 11.9514C7.20288 12.93 7.83117 13.6464 9.11126 13.8186V14.7464C9.11126 14.8243 9.14219 14.899 9.19726 14.954C9.25231 15.0091 9.32699 15.04 9.40485 15.04H9.99204C10.0699 15.04 10.1446 15.0091 10.1997 14.954C10.2547 14.899 10.2857 14.8243 10.2857 14.7464V13.8186C11.4992 13.6268 12.2723 12.7891 12.2723 11.738Z" fill="white"/>
<path d="M7.68422 15.8582C6.55327 15.4452 5.57662 14.6946 4.88656 13.708C4.1965 12.7213 3.82639 11.5465 3.82639 10.3425C3.82639 9.1385 4.1965 7.96361 4.88656 6.977C5.57662 5.99038 6.55327 5.23975 7.68422 4.82676C7.75672 4.79494 7.81883 4.74339 7.86349 4.67798C7.90813 4.61257 7.93349 4.53596 7.93671 4.45684V3.90878C7.94141 3.86025 7.93327 3.81133 7.91308 3.76696C7.89289 3.72258 7.86139 3.68428 7.82173 3.65591C7.78207 3.62755 7.73564 3.61014 7.6871 3.60538C7.63859 3.60064 7.58965 3.60876 7.54526 3.62889C6.12104 4.08281 4.87809 4.9779 3.99606 6.18476C3.11404 7.39161 2.63867 8.84767 2.63867 10.3425C2.63867 11.8373 3.11404 13.2934 3.99606 14.5002C4.87809 15.7071 6.12104 16.6021 7.54526 17.056C7.58965 17.0762 7.63859 17.0843 7.6871 17.0796C7.73564 17.0748 7.78207 17.0574 7.82173 17.029C7.86139 17.0007 7.89289 16.9624 7.91308 16.918C7.93327 16.8736 7.94141 16.8247 7.93671 16.7762V16.2281C7.93349 16.149 7.90813 16.0724 7.86349 16.007C7.81883 15.9416 7.75672 15.89 7.68422 15.8582Z" fill="white"/>
<path d="M11.8512 3.62889C11.8068 3.60876 11.7579 3.60064 11.7094 3.60538C11.6608 3.61014 11.6144 3.62755 11.5747 3.65591C11.5351 3.68428 11.5036 3.72258 11.4834 3.76696C11.4632 3.81133 11.4551 3.86025 11.4598 3.90878V4.45684C11.463 4.53596 11.4883 4.61257 11.533 4.67798C11.5776 4.74339 11.6397 4.79494 11.7122 4.82676C12.8432 5.23975 13.8199 5.99038 14.5099 6.977C15.2 7.96361 15.5701 9.1385 15.5701 10.3425C15.5701 11.5465 15.2 12.7213 14.5099 13.708C13.8199 14.6946 12.8432 15.4452 11.7122 15.8582C11.6374 15.8866 11.573 15.9373 11.5279 16.0035C11.4827 16.0696 11.4589 16.148 11.4598 16.2281V16.7762C11.4551 16.8247 11.4632 16.8736 11.4834 16.918C11.5036 16.9624 11.5351 17.0007 11.5747 17.029C11.6144 17.0574 11.6608 17.0748 11.7094 17.0796C11.7579 17.0843 11.8068 17.0762 11.8512 17.056C13.2754 16.6021 14.5184 15.7071 15.4004 14.5002C16.2824 13.2934 16.7578 11.8373 16.7578 10.3425C16.7578 8.84767 16.2824 7.39161 15.4004 6.18476C14.5184 4.9779 13.2754 4.08281 11.8512 3.62889Z" fill="white"/>
</g>
<defs>
<clipPath id="clip0_1_547">
<rect width="19.19" height="19.19" fill="white" transform="translate(0.0899963 0.649963)"/>
</clipPath>
</defs>
</svg>
