<svg width="122" height="28" viewBox="0 0 122 28" fill="none" xmlns="http://www.w3.org/2000/svg">
<g clip-path="url(#clip0_1_6)">
<mask id="mask0_1_6" style="mask-type:luminance" maskUnits="userSpaceOnUse" x="0" y="0" width="122" height="28">
<path d="M121.5 0.5H0.5V27.5H121.5V0.5Z" fill="white"/>
</mask>
<g mask="url(#mask0_1_6)">
<path fill-rule="evenodd" clip-rule="evenodd" d="M119.281 15.8564C119.281 14.2775 118.351 13.0888 116.883 13.0888C115.415 13.0888 114.484 14.2775 114.484 15.8564C114.484 17.4352 115.415 18.6239 116.883 18.6239C118.354 18.6269 119.281 17.4382 119.281 15.8564ZM119.209 12.0293V7.89303C119.209 7.61988 119.392 7.38275 119.656 7.31371L121.85 6.72839V20.725H119.416V19.5364C118.804 20.4278 117.705 20.9501 116.33 20.9501C113.506 20.9501 111.852 18.6839 111.852 15.8594C111.852 13.0348 113.506 10.7686 116.33 10.7686C117.702 10.7656 118.708 11.3599 119.209 12.0293ZM104.234 10.9877V12.1764C104.681 11.3389 105.684 10.7626 107.133 10.7626C109.475 10.7626 110.72 12.3234 110.72 14.6467V20.725H108.082V14.9469C108.082 13.8122 107.599 13.0318 106.428 13.0318C105.146 13.0318 104.441 13.8483 104.441 15.151V20.725H101.803V10.9877H104.234ZM95.6342 20.9501C92.7917 20.9501 91.2098 19.7225 91.2098 16.5647V10.9877H93.8482V16.6008C93.8482 17.9575 94.4606 18.5878 95.6312 18.5878C96.8018 18.5878 97.4142 17.9545 97.4142 16.6008V10.9877H100.053V16.5617C100.059 19.7225 98.4767 20.9501 95.6342 20.9501ZM82.4991 15.8564C82.4991 17.6033 83.5767 18.6239 84.9694 18.6239C86.3622 18.6239 87.4398 17.6003 87.4398 15.8564C87.4398 14.1124 86.3622 13.0888 84.9694 13.0888C83.5797 13.0888 82.4991 14.1094 82.4991 15.8564ZM84.9724 20.9501C81.8507 20.9501 79.8606 18.6269 79.8606 15.8594C79.8606 13.0919 81.8477 10.7686 84.9724 10.7686C88.0941 10.7686 90.0842 13.0919 90.0842 15.8594C90.0812 18.6269 88.0941 20.9501 84.9724 20.9501ZM71.8193 15.8564C71.8193 17.4352 72.7498 18.6239 74.2176 18.6239C75.6854 18.6239 76.6159 17.4352 76.6159 15.8564C76.6159 14.2775 75.6854 13.0888 74.2176 13.0888C72.7498 13.0888 71.8193 14.2775 71.8193 15.8564ZM71.8943 19.6864V23.7356C71.8943 24.0088 71.7112 24.2459 71.4471 24.3149L69.2559 24.8913V10.9877H71.6902V12.1764C72.3025 11.2849 73.4011 10.7626 74.7759 10.7626C77.6004 10.7626 79.2543 13.0288 79.2543 15.8534C79.2543 18.6779 77.6004 20.9441 74.7759 20.9441C73.3981 20.9501 72.3956 20.3558 71.8943 19.6864ZM61.4186 15.187V20.725H58.7802V14.9469C58.7802 13.8693 58.39 13.0318 57.2193 13.0318C55.9917 13.0318 55.3223 13.8303 55.3223 15.133V20.728H52.6839V10.9877H55.1182V12.1764C55.5654 11.3389 56.532 10.7626 57.9247 10.7626C59.2454 10.7626 60.191 11.2819 60.7493 12.1373C61.6047 11.1888 62.5893 10.7626 63.982 10.7626C66.3233 10.7626 67.5119 12.3805 67.5119 14.6467V20.725H64.8735V14.9469C64.8735 13.8693 64.4833 13.0318 63.3126 13.0318C62.067 13.0318 61.4186 13.8303 61.4186 15.187ZM43.8801 15.8564C43.8801 17.6033 44.9577 18.6239 46.3504 18.6239C47.7432 18.6239 48.8208 17.6003 48.8208 15.8564C48.8208 14.1124 47.7432 13.0888 46.3504 13.0888C44.9577 13.0888 43.8801 14.1094 43.8801 15.8564ZM46.3504 20.9501C43.2287 20.9501 41.2387 18.6269 41.2387 15.8594C41.2387 13.0919 43.2257 10.7686 46.3504 10.7686C49.4751 10.7686 51.4622 13.0919 51.4622 15.8594C51.4622 18.6269 49.4721 20.9501 46.3504 20.9501ZM27.5482 14.1094C27.5482 9.98516 30.3908 7.25068 34.1818 7.25068C37.4716 7.25068 40.074 9.20174 40.5753 12.4165H37.6757C37.2855 10.7626 35.9468 9.83208 34.1818 9.83208C31.7655 9.83208 30.4088 11.504 30.4088 14.1064C30.4088 16.7088 31.7655 18.3807 34.1818 18.3807C35.9468 18.3807 37.2855 17.4502 37.6757 15.7963H40.5753C40.074 19.0111 37.4716 20.9621 34.1818 20.9621C30.3908 20.9681 27.5482 18.2366 27.5482 14.1094Z" fill="white"/>
<path fill-rule="evenodd" clip-rule="evenodd" d="M1.58359 21.5428C0.911223 21.1315 0.5 20.3992 0.5 19.6127V15.2213C0.5 15.0532 0.545024 14.8912 0.62907 14.7471C0.890212 14.2968 1.46953 14.1438 1.91977 14.4079L11.8312 20.186C12.4105 20.5252 12.7677 21.1436 12.7677 21.8159V26.3664C12.7677 26.5735 12.7106 26.7806 12.6026 26.9577C12.2754 27.492 11.579 27.6601 11.0447 27.3329L1.58359 21.5428ZM16.3576 13.2042C16.9369 13.5434 17.2941 14.1618 17.2941 14.8341V24.0671C17.2941 24.3403 17.147 24.5924 16.9099 24.7245L14.7397 25.9462C14.7127 25.9612 14.6827 25.9732 14.6527 25.9822V20.8554C14.6527 20.192 14.3045 19.5767 13.7342 19.2345L5.02946 14.0267V8.23955C5.02946 8.07145 5.07449 7.90937 5.15853 7.76529C5.41967 7.31504 5.99899 7.16196 6.44923 7.4261L16.3576 13.2042ZM20.695 6.38454C21.2773 6.72072 21.6345 7.34506 21.6345 8.01743V21.5038C21.6345 21.7799 21.4814 22.035 21.2383 22.1671L19.1821 23.2777V13.8886C19.1821 13.2253 18.834 12.6129 18.2667 12.2707L9.36982 6.93384V1.44385C9.36982 1.27576 9.41484 1.11367 9.49589 0.969596C9.75703 0.519352 10.3363 0.366269 10.7866 0.627411L20.695 6.38454Z" fill="#00D395"/>
</g>
</g>
<defs>
<clipPath id="clip0_1_6">
<rect width="121" height="27" fill="white" transform="translate(0.5 0.5)"/>
</clipPath>
</defs>
</svg>
