<svg width="25" height="24" viewBox="0 0 25 24" fill="none" xmlns="http://www.w3.org/2000/svg">
<g clip-path="url(#clip0_1_42)">
<path d="M12.34 23.75C14.664 23.75 16.9357 23.0609 18.868 21.7698C20.8003 20.4787 22.3063 18.6436 23.1956 16.4965C24.0849 14.3495 24.3176 11.987 23.8643 9.7077C23.4109 7.42842 22.2918 5.33478 20.6485 3.6915C19.0053 2.04823 16.9116 0.929155 14.6323 0.475778C12.3531 0.0224024 9.99053 0.25509 7.8435 1.14442C5.69645 2.03375 3.86138 3.53978 2.57026 5.47205C1.27915 7.40433 0.590027 9.67607 0.590027 12C0.590027 15.1163 1.82797 18.105 4.03153 20.3085C6.23508 22.5121 9.22373 23.75 12.34 23.75Z" fill="#2775C9"/>
<path d="M15.5759 13.8673C15.5759 12.1537 14.5331 11.576 12.516 11.2994C11.0252 11.084 10.7388 10.7339 10.7388 10.0387C10.7388 9.34352 11.2431 8.91024 12.2075 8.91024C13.0863 8.91024 13.5931 9.21624 13.8011 9.92369C13.8232 10.0011 13.8697 10.0694 13.9336 10.1183C13.9976 10.1672 14.0756 10.1943 14.1561 10.1954H14.9272C14.9775 10.1964 15.0275 10.1864 15.0735 10.1659C15.1196 10.1454 15.1605 10.1151 15.1935 10.077C15.2264 10.0389 15.2506 9.99397 15.2642 9.94549C15.2778 9.89699 15.2806 9.84607 15.2723 9.79639C15.0275 8.67769 14.2736 8.00452 13.0912 7.79399V6.61409C13.0912 6.51672 13.0525 6.42332 12.9837 6.35447C12.9148 6.28559 12.8214 6.24692 12.724 6.24692H11.9897C11.8923 6.24692 11.7989 6.28559 11.73 6.35447C11.6612 6.42332 11.6225 6.51672 11.6225 6.61409V7.75237C10.1537 7.95799 9.22595 8.92737 9.22595 10.1709C9.22595 11.7792 10.2051 12.4034 12.2516 12.68C13.6445 12.9077 14.041 13.2088 14.041 13.9995C14.041 14.7901 13.3678 15.3213 12.4181 15.3213C11.1378 15.3213 10.7045 14.7608 10.5601 14.0337C10.5433 13.9503 10.4984 13.8752 10.4329 13.8208C10.3675 13.7665 10.2853 13.7362 10.2002 13.7351H9.36305C9.3131 13.7348 9.26368 13.7454 9.21825 13.7662C9.17283 13.7869 9.13248 13.8174 9.10008 13.8554C9.06765 13.8934 9.04395 13.9381 9.0306 13.9862C9.01725 14.0343 9.01458 14.0848 9.02278 14.1341C9.23575 15.3581 10.0215 16.254 11.6225 16.4694V17.6297C11.6225 17.7271 11.6612 17.8205 11.73 17.8894C11.7989 17.9582 11.8923 17.9969 11.9897 17.9969H12.724C12.8214 17.9969 12.9148 17.9582 12.9837 17.8894C13.0525 17.8205 13.0912 17.7271 13.0912 17.6297V16.4694C14.6089 16.2295 15.5759 15.1818 15.5759 13.8673Z" fill="white"/>
<path d="M9.83775 19.0202C8.42333 18.5037 7.20188 17.5649 6.33885 16.331C5.47583 15.0971 5.01295 13.6277 5.01295 12.1219C5.01295 10.6162 5.47583 9.1468 6.33885 7.9129C7.20188 6.67898 8.42333 5.7402 9.83775 5.2237C9.92843 5.1839 10.0061 5.11943 10.062 5.03763C10.1178 4.95583 10.1495 4.86 10.1535 4.76105V4.07563C10.1594 4.01493 10.1492 3.95375 10.124 3.89825C10.0987 3.84275 10.0593 3.79485 10.0097 3.75938C9.96013 3.7239 9.90205 3.70213 9.84135 3.69618C9.78068 3.69025 9.71948 3.7004 9.66395 3.72558C7.88275 4.29328 6.32825 5.41273 5.22515 6.92208C4.12205 8.43143 3.52753 10.2525 3.52753 12.1219C3.52753 13.9914 4.12205 15.8125 5.22515 17.3218C6.32825 18.8312 7.88275 19.9506 9.66395 20.5183C9.71948 20.5435 9.78068 20.5536 9.84135 20.5477C9.90205 20.5418 9.96013 20.52 10.0097 20.4845C10.0593 20.449 10.0987 20.4011 10.124 20.3456C10.1492 20.2901 10.1594 20.2289 10.1535 20.1682V19.4828C10.1495 19.3839 10.1178 19.288 10.062 19.2062C10.0061 19.1245 9.92843 19.06 9.83775 19.0202Z" fill="white"/>
<path d="M15.0492 3.72558C14.9937 3.7004 14.9325 3.69025 14.8718 3.69618C14.8111 3.70213 14.7531 3.7239 14.7035 3.75938C14.6539 3.79485 14.6145 3.84275 14.5892 3.89825C14.564 3.95375 14.5538 4.01493 14.5597 4.07563V4.76105C14.5637 4.86 14.5954 4.95583 14.6512 5.03763C14.7071 5.11943 14.7848 5.1839 14.8754 5.2237C16.2899 5.7402 17.5113 6.67898 18.3744 7.9129C19.2374 9.1468 19.7002 10.6162 19.7002 12.1219C19.7002 13.6277 19.2374 15.0971 18.3744 16.331C17.5113 17.5649 16.2899 18.5037 14.8754 19.0202C14.7818 19.0557 14.7013 19.1191 14.6448 19.2019C14.5884 19.2846 14.5586 19.3827 14.5597 19.4828V20.1682C14.5538 20.2289 14.564 20.2901 14.5892 20.3456C14.6145 20.4011 14.6539 20.449 14.7035 20.4845C14.7531 20.52 14.8111 20.5418 14.8718 20.5477C14.9325 20.5536 14.9937 20.5435 15.0492 20.5183C16.8304 19.9506 18.385 18.8312 19.4881 17.3218C20.5911 15.8125 21.1857 13.9914 21.1857 12.1219C21.1857 10.2525 20.5911 8.43143 19.4881 6.92208C18.385 5.41273 16.8304 4.29328 15.0492 3.72558Z" fill="white"/>
</g>
<defs>
<clipPath id="clip0_1_42">
<rect width="24" height="24" fill="white" transform="translate(0.340027)"/>
</clipPath>
</defs>
</svg>
