<svg width="13" height="11" viewBox="0 0 13 11" fill="none" xmlns="http://www.w3.org/2000/svg">
<g clip-path="url(#clip0_1_17)">
<path fill-rule="evenodd" clip-rule="evenodd" d="M1.35886 1.19224C1.35886 0.937336 1.5655 0.730698 1.82039 0.730698H11.9742C12.2292 0.730698 12.4358 0.937336 12.4358 1.19224V2.7307C12.4358 2.9856 12.2292 3.19224 11.9742 3.19224H1.82039C1.5655 3.19224 1.35886 2.9856 1.35886 2.7307V1.19224ZM1.35886 4.88454C1.35886 4.62964 1.5655 4.423 1.82039 4.423H7.05117C7.30607 4.423 7.51271 4.62964 7.51271 4.88454V10.1153C7.51271 10.3703 7.30607 10.5768 7.05117 10.5768H1.82039C1.5655 10.5768 1.35886 10.3703 1.35886 10.1153V4.88454ZM9.20501 4.423C8.95011 4.423 8.74347 4.62964 8.74347 4.88454V8.88455C8.74347 9.13945 8.95011 9.34609 9.20501 9.34609H11.9742C12.2292 9.34609 12.4358 9.13945 12.4358 8.88455V4.88454C12.4358 4.62964 12.2292 4.423 11.9742 4.423H9.20501Z" fill="#7A8A99"/>
</g>
<defs>
<clipPath id="clip0_1_17">
<rect width="12" height="11" fill="white" transform="translate(0.5)"/>
</clipPath>
</defs>
</svg>
