<svg width="13" height="12" viewBox="0 0 13 12" fill="none" xmlns="http://www.w3.org/2000/svg">
<g clip-path="url(#clip0_1_22)">
<path fill-rule="evenodd" clip-rule="evenodd" d="M4.96153 0.923071C4.96153 0.668171 5.16817 0.461533 5.42307 0.461533H7.57692C7.83182 0.461533 8.03846 0.668171 8.03846 0.923071V11.0769C8.03846 11.3318 7.83182 11.5385 7.57692 11.5385H5.42307C5.16817 11.5385 4.96153 11.3318 4.96153 11.0769V0.923071ZM0.653839 4.61538C0.653839 4.36048 0.860477 4.15384 1.11538 4.15384H3.26922C3.52412 4.15384 3.73076 4.36048 3.73076 4.61538V11.0769C3.73076 11.3318 3.52412 11.5385 3.26922 11.5385H1.11538C0.860476 11.5385 0.653839 11.3318 0.653839 11.0769V4.61538ZM9.73076 1.6923C9.47586 1.6923 9.26922 1.89894 9.26922 2.15384V11.0769C9.26922 11.3318 9.47586 11.5385 9.73076 11.5385H11.8846C12.1395 11.5385 12.3461 11.3318 12.3461 11.0769V2.15384C12.3461 1.89894 12.1395 1.6923 11.8846 1.6923H9.73076Z" fill="#6D7E8F"/>
</g>
<defs>
<clipPath id="clip0_1_22">
<rect width="12" height="12" fill="white" transform="translate(0.5)"/>
</clipPath>
</defs>
</svg>
