<svg width="295" height="132" viewBox="0 0 295 132" fill="none" xmlns="http://www.w3.org/2000/svg">
<g clip-path="url(#clip0_1_606)">
<path d="M3.9537 22.6152H288.599" stroke="#0D131A" stroke-opacity="0.35" stroke-width="2.20655" stroke-linecap="round"/>
<path d="M282.907 26.2928C284.938 26.2928 286.584 24.6463 286.584 22.6152C286.584 20.5841 284.938 18.9376 282.907 18.9376C280.876 18.9376 279.229 20.5841 279.229 22.6152C279.229 24.6463 280.876 26.2928 282.907 26.2928Z" fill="#F0F2F5" stroke="white" stroke-width="2.20655"/>
<path d="M3.9537 22.6152H282.906" stroke="#F0F2F5" stroke-width="2.20655" stroke-linecap="round"/>
<path d="M3.9537 107.769L6.80015 107.421L9.64661 107.072L12.4931 106.724L15.3395 106.375L18.186 106.027L21.0324 105.679L23.8789 105.33L26.7253 104.982L29.5718 104.633L32.4182 104.285L35.2647 103.937L38.1111 103.588L40.9576 103.24L43.804 102.891L46.6505 102.543L49.4969 102.195L52.3434 101.846L55.1898 101.498L58.0363 101.149L60.8827 100.801L63.7292 100.453L66.5756 100.104L69.4221 99.7557L72.2685 99.4073L75.115 99.0589L77.9614 98.7105L80.8079 98.3621L83.6543 98.0137L86.5008 97.6653L89.3472 97.3169L92.1937 96.9685L95.0401 96.6201L97.8866 96.2717L100.733 95.9233L103.579 95.5749L106.426 95.2265L109.272 94.8781L112.119 94.5297L114.965 94.1813L117.812 93.8329L120.658 93.4845L123.505 93.136L126.351 92.7876L129.198 92.4392L132.044 92.0908L134.89 91.7424L137.737 91.394L140.583 91.0456L143.43 90.6972L146.276 90.3488L149.123 90.0004L151.969 89.652L154.816 89.3036L157.662 88.9552L160.508 88.6068L163.355 88.2584L166.201 87.91L169.048 87.5616L171.894 87.2132L174.741 86.8648L177.587 86.5164L180.434 86.168L183.28 85.8196L186.127 85.4712L188.973 85.1228L191.819 84.7744L194.666 84.426L197.512 84.0776L200.359 83.7292L203.205 83.3808L206.052 83.0324L208.898 82.684L211.745 82.3356L214.591 81.9872L217.437 81.6388L220.284 81.2904L223.13 80.942L225.977 80.5936L228.823 80.2451L231.67 79.8967L234.516 79.5483L237.363 79.1999L240.209 78.8515L243.056 78.5031L245.902 78.1547L248.748 77.8063L251.595 77.4579L254.441 77.1095L257.288 76.7611L260.134 76.4127H262.981H265.827H268.674H271.52H274.366H277.213H280.059H282.906H285.752H288.599" stroke="#8F66FF" stroke-opacity="0.35" stroke-width="2.20655" stroke-linecap="round"/>
<path d="M3.9537 107.769L6.80015 107.421L9.64661 107.072L12.4931 106.724L15.3395 106.375L18.186 106.027L21.0324 105.679L23.8789 105.33L26.7253 104.982L29.5718 104.633L32.4182 104.285L35.2647 103.937L38.1111 103.588L40.9576 103.24L43.804 102.891L46.6505 102.543L49.4969 102.195L52.3434 101.846L55.1898 101.498L58.0363 101.149L60.8827 100.801L63.7292 100.453L66.5756 100.104L69.4221 99.7557L72.2685 99.4073L75.115 99.0589L77.9614 98.7105L80.8079 98.3621L83.6543 98.0137L86.5008 97.6653L89.3472 97.3169L92.1937 96.9685L95.0401 96.6201L97.8866 96.2717L100.733 95.9233L103.579 95.5749L106.426 95.2265L109.272 94.8781L112.119 94.5297L114.965 94.1813L117.812 93.8329L120.658 93.4845L123.505 93.136L126.351 92.7876L129.198 92.4392L132.044 92.0908L134.89 91.7424L137.737 91.394L140.583 91.0456L143.43 90.6972L146.276 90.3488L149.123 90.0004L151.969 89.652L154.816 89.3036L157.662 88.9552L160.508 88.6068L163.355 88.2584L166.201 87.91L169.048 87.5616L171.894 87.2132L174.741 86.8648L177.587 86.5164L180.434 86.168L183.28 85.8196L186.127 85.4712L188.973 85.1228L191.819 84.7744L194.666 84.426L197.512 84.0776L200.359 83.7292L203.205 83.3808L206.052 83.0324L208.898 82.684L211.745 82.3356L214.591 81.9872L217.437 81.6388L220.284 81.2904L223.13 80.942L225.977 80.5936L228.823 80.2451L231.67 79.8967L234.516 79.5483L237.363 79.1999L240.209 78.8515L243.056 78.5031L245.902 78.1547L248.748 77.8063L251.595 77.4579L254.441 77.1095L257.288 76.7611L260.134 76.4127H262.981H265.827H268.674H271.52H274.366H277.213H280.059H282.906" stroke="#8F66FF" stroke-width="2.20655" stroke-linecap="round"/>
<path d="M282.907 80.0904C284.938 80.0904 286.584 78.4439 286.584 76.4128C286.584 74.3817 284.938 72.7352 282.907 72.7352C280.876 72.7352 279.229 74.3817 279.229 76.4128C279.229 78.4439 280.876 80.0904 282.907 80.0904Z" fill="#8F66FF" stroke="white" stroke-width="2.20655"/>
<path d="M3.9537 118.231L6.80016 117.875L9.64662 117.519L12.4931 117.164L15.3395 116.808L18.186 116.452L21.0325 116.097L23.8789 115.741L26.7254 115.385L29.5718 115.029L32.4183 114.674L35.2648 114.318L38.1112 113.962L40.9577 113.606L43.8041 113.251L46.6506 112.895L49.4971 112.539L52.3435 112.184L55.19 111.828L58.0364 111.472L60.8829 111.116L63.7294 110.761L66.5758 110.405L69.4223 110.049L72.2687 109.694L75.1152 109.338L77.9617 108.982L80.8081 108.626L83.6546 108.271L86.501 107.915L89.3475 107.559L92.194 107.204L95.0404 106.848L97.8869 106.492L100.733 106.136L103.58 105.781L106.426 105.425L109.273 105.069L112.119 104.713L114.966 104.358L117.812 104.002L120.659 103.646L123.505 103.291L126.351 102.935L129.198 102.579L132.044 102.223L134.891 101.868L137.737 101.512L140.584 101.156L143.43 100.801L146.277 100.445L149.123 100.089L151.97 99.7334L154.816 99.3776L157.663 99.0219L160.509 98.6662L163.355 98.3105L166.202 97.9548L169.048 97.599L171.895 97.2433L174.741 96.8876L177.588 96.5319L180.434 96.1761L183.281 95.8204L186.127 95.4647L188.974 95.109L191.82 94.7533L194.667 94.3975L197.513 94.0418L200.359 93.6861L203.206 93.3304L206.052 92.9747L208.899 92.6189L211.745 92.2632L214.592 91.9075L217.438 91.5518L220.285 91.1961L223.131 90.8403L225.978 90.4846L228.824 90.1289L231.67 89.7732L234.517 89.4175L237.363 89.0617L240.21 88.706L243.056 88.3503L245.903 87.9946L248.749 87.6388L251.596 87.2831L254.442 86.9274L257.289 86.5717L260.135 86.216L262.982 85.8602L265.828 85.5045L268.674 85.1488L271.521 84.7931L274.367 84.4374L277.214 76.4859L280.06 68.5345L282.907 60.5831L285.753 52.6317L288.6 44.6803" stroke="#00C289" stroke-opacity="0.35" stroke-width="2.20655" stroke-linecap="round"/>
<path d="M3.9537 118.232L6.80015 117.876L9.64661 117.52L12.4931 117.165L15.3395 116.809L18.186 116.453L21.0324 116.097L23.8789 115.742L26.7253 115.386L29.5718 115.03L32.4182 114.674L35.2647 114.319L38.1111 113.963L40.9576 113.607L43.804 113.252L46.6505 112.896L49.4969 112.54L52.3434 112.184L55.1898 111.829L58.0363 111.473L60.8827 111.117L63.7292 110.761L66.5756 110.406L69.4221 110.05L72.2685 109.694L75.115 109.339L77.9614 108.983L80.8079 108.627L83.6543 108.271L86.5008 107.916L89.3472 107.56L92.1937 107.204L95.0401 106.848L97.8866 106.493L100.733 106.137L103.579 105.781L106.426 105.426L109.272 105.07L112.119 104.714L114.965 104.358L117.812 104.003L120.658 103.647L123.505 103.291L126.351 102.936L129.198 102.58L132.044 102.224L134.89 101.868L137.737 101.513L140.583 101.157L143.43 100.801L146.276 100.445L149.123 100.09L151.969 99.734L154.816 99.3782L157.662 99.0225L160.508 98.6668L163.355 98.3111L166.201 97.9553L169.048 97.5996L171.894 97.2439L174.741 96.8882L177.587 96.5324L180.434 96.1767L183.28 95.821L186.127 95.4652L188.973 95.1095L191.819 94.7538L194.666 94.3981L197.512 94.0423L200.359 93.6866L203.205 93.3309L206.052 92.9752L208.898 92.6194L211.745 92.2637L214.591 91.908L217.437 91.5523L220.284 91.1965L223.13 90.8408L225.977 90.4851L228.823 90.1294L231.67 89.7736L234.516 89.4179L237.363 89.0622L240.209 88.7064L243.056 88.3507L245.902 87.995L248.748 87.6393L251.595 87.2835L254.441 86.9278L257.288 86.5721L260.134 86.2164L262.981 85.8606L265.827 85.5049L268.674 85.1492L271.52 84.7935L274.366 84.4377L277.213 76.4862L280.059 68.5347L282.906 60.5831" stroke="#00C289" stroke-width="2.20655" stroke-linecap="round"/>
<path d="M282.907 64.2608C284.938 64.2608 286.584 62.6143 286.584 60.5832C286.584 58.5522 284.938 56.9056 282.907 56.9056C280.876 56.9056 279.229 58.5522 279.229 60.5832C279.229 62.6143 280.876 64.2608 282.907 64.2608Z" fill="#00C289" stroke="white" stroke-width="2.20655"/>
</g>
<defs>
<clipPath id="clip0_1_606">
<rect width="294.22" height="130.92" fill="white" transform="translate(0.269974 0.549988)"/>
</clipPath>
</defs>
</svg>
